<svg preserveAspectRatio="none" width="100%" height="100%" overflow="visible" style="display: block;" viewBox="0 0 35 49" fill="none" xmlns="http://www.w3.org/2000/svg">
<g id="?" filter="url(#filter0_d_0_9)">
<path d="M18.6638 30.9911C17.9191 30.7927 17.6635 30.2554 17.8969 29.3793C18.0136 28.9413 18.4355 28.6783 19.1626 28.5906C19.6473 28.532 20.0985 28.5115 20.5161 28.5289C20.9453 28.5025 21.4023 28.46 21.8871 28.4015C23.4289 28.2493 24.845 27.6882 26.1355 26.7184C27.4376 25.7048 28.5397 24.4737 29.4417 23.025C30.3436 21.5764 30.9813 20.1512 31.3548 18.7494C31.7399 17.3038 31.8709 15.9313 31.7479 14.6318C30.4226 16.4369 28.6314 17.4375 26.3741 17.6337C24.9432 17.7217 23.6249 18.0038 22.4189 18.4801C21.2568 18.968 20.4599 20.0224 20.0281 21.6432C19.6197 23.1764 18.6592 24.1403 17.1466 24.5349C16.4955 24.6899 15.8458 24.7514 15.1975 24.7194C14.5492 24.6874 13.8585 24.5504 13.1255 24.3082C12.8305 24.1827 12.5137 24.0514 12.1749 23.9142C11.8916 23.7449 11.6199 23.5318 11.36 23.2749C11.1733 23.9758 11.0537 24.6007 11.0013 25.1497C10.9927 25.7104 11.0789 26.1791 11.2601 26.5557C11.4734 26.9879 11.5275 27.4011 11.4225 27.7953C11.2124 28.5838 10.4839 28.765 9.23684 28.339C8.34026 28.0063 8.20705 26.6573 8.83721 24.2918C8.81387 24.3794 8.85472 24.226 8.95974 23.8318C9.06477 23.4375 9.18434 22.8126 9.31845 21.9569L9.49349 21.2999C9.66854 20.6428 9.88012 20.1127 10.1282 19.7097L10.6843 18.943L11.0344 17.6288C11.2418 17.731 11.4272 17.8273 11.5908 17.9178C11.7543 18.0083 11.8741 18.0871 11.95 18.1542C12.1486 18.1133 12.3194 18.0884 12.4625 18.0796C12.6494 18.0825 12.8304 18.1073 13.0057 18.1539C13.1809 18.2006 13.3722 18.275 13.5795 18.3772C13.7986 18.4355 13.9957 18.4881 14.1709 18.5347C15.5289 18.8965 16.6356 18.7925 17.4911 18.2229C18.402 17.6211 18.98 16.8603 19.2251 15.9403C19.2484 15.8527 19.2615 15.7155 19.2644 15.5286C19.3111 15.3534 19.3417 15.1504 19.3562 14.9197C19.0435 13.8043 18.471 13.1357 17.6387 12.914C17.2882 12.8206 16.9466 12.8703 16.6137 13.0632C16.2925 13.2122 15.881 13.8766 15.379 15.0565C15.0025 15.9414 14.5076 16.3022 13.8944 16.1388C13.2373 15.9638 12.8401 15.6937 12.7027 15.3287C12.1654 15.2325 11.5127 15.129 10.7447 15.0182C10.0204 14.9191 9.18669 14.7909 8.24343 14.6334C7.40825 14.5986 6.60665 14.5258 5.83861 14.415C5.11438 14.3159 4.40182 14.173 3.70093 13.9863C3.17527 13.8463 2.67734 13.6901 2.20714 13.518C1.73695 13.3458 1.27843 13.1298 0.831576 12.87C0.145229 12.4526 -0.116257 11.9373 0.0471179 11.324L1.62332 8.57719C4.01684 4.52337 6.72319 1.93687 9.74237 0.817681C12.7615 -0.301511 16.4833 -0.271792 20.9077 0.90684C22.6599 1.37362 24.3684 2.18062 26.0332 3.32783C27.7097 4.43123 29.1905 5.74056 30.4758 7.2558C31.8049 8.78272 32.8142 10.3652 33.5038 12.0032C34.2459 13.796 34.2378 16.1161 33.4792 18.9635C32.5457 22.4679 31.168 25.1738 29.3463 27.0812C27.5363 28.9447 24.7843 30.2055 21.0905 30.8634C19.9108 31.0652 19.1019 31.1078 18.6638 30.9911ZM4.15578 11.2222C5.82039 11.6657 8.31292 12.2593 11.6333 13.0031C11.7763 12.2905 11.8008 11.4057 11.7071 10.3486C11.6572 9.30323 11.4891 8.43744 11.2027 7.75127C10.7001 6.1161 10.7362 4.48371 11.311 2.85411C8.53115 3.42717 6.16627 5.26018 4.21638 8.35314C3.56252 9.39873 3.21226 10.0091 3.16558 10.1844C3.03721 10.6662 3.36728 11.0122 4.15578 11.2222ZM14.5813 30.4665C14.1871 30.3614 13.7344 30.1236 13.2232 29.7528C12.7238 29.3383 12.5207 28.9558 12.6141 28.6054C12.7775 27.9921 13.2797 27.8678 14.1208 28.2327C14.6348 28.4165 15.0116 28.5872 15.251 28.7449C15.5022 28.8587 15.6497 28.9214 15.6935 28.9331C16.0411 29.2133 16.1682 29.5287 16.0748 29.8791C15.9115 30.4924 15.4136 30.6882 14.5813 30.4665ZM9.21068 46.136C8.64121 45.9843 8.11114 45.7728 7.62049 45.5013C5.43882 44.3571 3.84845 43.0186 2.84936 41.4858C1.90575 39.9208 1.67613 38.4053 2.16051 36.9393C3.30144 33.537 5.01803 31.672 7.31028 31.3444C10.0435 30.9465 12.0233 30.911 13.2499 31.2377C14.2136 31.4945 15.0913 31.9863 15.8828 32.7132C16.7298 33.408 17.4834 34.1014 18.1436 34.7933C18.1114 34.7378 18.1129 34.6444 18.1479 34.5129C18.0922 33.8413 18.2177 33.5463 18.5243 33.628C18.7872 33.698 18.9683 34.0747 19.0678 34.758C19.211 35.453 19.2974 36.2735 19.3268 37.2196C19.3679 38.122 19.355 38.963 19.2881 39.7427C19.2649 40.5341 19.2183 41.0612 19.1483 41.324C18.8099 42.5944 18.0626 43.6385 16.9064 44.4565C15.794 45.2861 14.5151 45.8602 13.0697 46.1789C11.6798 46.4654 10.3934 46.4511 9.21068 46.136ZM11.0796 40.4412C11.8243 40.6396 12.8098 40.5503 14.0362 40.1733C15.3064 39.8079 16.5677 38.9476 17.8201 37.5923C17.9311 37.5281 17.9924 37.474 18.0041 37.4302C17.896 37.3076 17.7674 37.0857 17.6184 36.7645C17.1626 35.6579 16.4776 34.7952 15.5634 34.1763C14.6609 33.5137 13.5628 33.0569 12.2691 32.8061C10.1314 32.3774 8.39393 32.3837 7.0566 32.825C5.76308 33.2779 4.7209 34.5485 3.93006 36.6366C4.24837 36.6745 4.53894 36.7284 4.80177 36.7984C5.07628 36.8246 5.34494 36.8728 5.60778 36.9428C6.70292 37.2345 7.56449 37.6986 8.19249 38.335C9.50396 39.5758 10.4663 40.2778 11.0796 40.4412Z" fill="url(#paint0_linear_0_9)"/>
</g>
<defs>
<filter id="filter0_d_0_9" x="4.34654e-10" y="1.27239e-08" width="34.0543" height="48.3836" filterUnits="userSpaceOnUse" color-interpolation-filters="sRGB">
<feFlood flood-opacity="0" result="BackgroundImageFix"/>
<feColorMatrix in="SourceAlpha" type="matrix" values="0 0 0 0 0 0 0 0 0 0 0 0 0 0 0 0 0 0 127 0" result="hardAlpha"/>
<feOffset dy="2"/>
<feComposite in2="hardAlpha" operator="out"/>
<feColorMatrix type="matrix" values="0 0 0 0 0 0 0 0 0 0 0 0 0 0 0 0 0 0 0.55 0"/>
<feBlend mode="normal" in2="BackgroundImageFix" result="effect1_dropShadow_0_9"/>
<feBlend mode="normal" in="SourceGraphic" in2="effect1_dropShadow_0_9" result="shape"/>
</filter>
<linearGradient id="paint0_linear_0_9" x1="0" y1="23.1918" x2="34.0543" y2="23.1918" gradientUnits="userSpaceOnUse">
<stop stop-color="#FF75C3"/>
<stop offset="0.2" stop-color="#FFA647"/>
<stop offset="0.4" stop-color="#FFE83F"/>
<stop offset="0.6" stop-color="#9FFF5B"/>
<stop offset="0.8" stop-color="#70E2FF"/>
<stop offset="1" stop-color="#CD93FF"/>
</linearGradient>
</defs>
</svg>
