<svg width="181" height="72" viewBox="0 0 181 72" fill="none" xmlns="http://www.w3.org/2000/svg">
<g filter="url(#filter0_d_1_2185)">
<path d="M9.6259 69.4477C9.30779 69.5329 9.07837 69.4108 8.93763 69.0813L4.29795 57.9323L0.938058 50.5317C0.931502 50.5072 0.924945 50.4827 0.918388 50.4583C0.887361 50.4404 0.868569 50.4192 0.862013 50.3947C0.829229 50.2724 0.873134 50.1426 0.993727 50.0053C1.08329 49.8502 1.21372 49.7497 1.38501 49.7038C2.32799 49.5036 3.06297 49.3591 3.58996 49.2703C4.11039 49.1571 4.41954 49.0874 4.51743 49.0612C4.63978 49.0284 4.9179 48.9408 5.35181 48.7983C5.81018 48.6492 6.42106 48.4331 7.18443 48.1498L7.29455 48.1203C7.61266 48.0351 7.84208 48.1572 7.98282 48.4867C8.05974 48.6759 8.29707 49.268 8.69481 50.2629C9.11701 51.2513 9.69962 52.6426 10.4426 54.4368L9.63455 48.0441C9.58514 47.6639 9.75947 47.4336 10.1576 47.3532L12.2622 46.986L15.7367 45.8583L15.8469 45.8288C16.165 45.7435 16.3944 45.8656 16.5351 46.1951L18.6514 51.4504C18.5443 50.5612 18.4306 49.6475 18.3103 48.7093C18.208 47.7401 18.1513 46.7456 18.1403 45.7257C18.1285 45.3879 18.2939 45.1731 18.6364 45.0813L21.957 44.1129L24.4359 43.5273C24.9497 43.3896 25.229 43.5509 25.2736 44.011L26.2011 52.024L26.2236 54.4571L27.7674 64.0359C27.8168 64.4161 27.6425 64.6464 27.2444 64.7268C26.2149 64.8977 25.4032 65.0497 24.8094 65.1826C24.2155 65.3154 23.8574 65.3983 23.7351 65.4311C23.6127 65.4639 23.2245 65.581 22.5704 65.7825C21.9341 65.953 21.0574 66.2535 19.9401 66.684L19.8666 66.7037C19.5485 66.7889 19.3102 66.6823 19.1515 66.3839C18.8211 65.738 18.4898 65.04 18.1576 64.2897C17.8499 63.5329 17.5136 62.7182 17.1487 61.8456L17.1861 62.4257C17.236 63.1991 17.285 63.9203 17.3331 64.5893C17.3812 65.2584 17.3828 65.9005 17.3378 66.5158C17.2929 67.131 17.0347 67.4887 16.5632 67.5888C15.9383 67.7038 15.3167 67.831 14.6984 67.9705C14.1046 68.1033 13.5263 68.2452 12.9634 68.396C12.4006 68.5468 11.8533 68.7066 11.3215 68.8753C10.7898 69.044 10.2612 69.225 9.73602 69.4182L9.6259 69.4477ZM23.4069 53.0481L23.4214 52.8082C23.4375 52.6727 23.434 52.4638 23.4108 52.1815C23.3811 51.8748 23.3161 51.4857 23.216 51.0142C23.1159 50.5427 23.0477 50.1413 23.0114 49.8101C22.9751 49.4789 22.9552 49.2088 22.9517 48.9999C22.9591 48.3423 23.2931 47.925 23.9538 47.7479C24.0517 47.7217 24.1528 47.7077 24.2573 47.7059C24.3552 47.6797 24.4686 47.6624 24.5975 47.6541L24.2367 44.8396C23.6853 44.9349 23.2472 45.0129 22.9225 45.0737C22.5913 45.11 22.3768 45.1413 22.2789 45.1675C22.181 45.1937 21.9061 45.2936 21.4543 45.4671C20.996 45.6162 20.3451 45.8299 19.5018 46.1083C19.5249 46.3906 19.5654 46.7863 19.6231 47.2954C19.6743 47.78 19.7272 48.369 19.7819 49.0625C19.8134 49.4737 20.1648 49.9041 20.836 50.3537C21.3455 50.6892 21.8225 51.0991 22.267 51.5832C22.7293 52.0363 23.1093 52.5246 23.4069 53.0481ZM7.52523 62.9292C7.55309 61.6629 7.76102 60.8728 8.14903 60.559C8.70657 60.0949 9.21933 59.7084 9.68731 59.3994C10.1798 59.0838 10.6209 58.8214 11.0106 58.612L8.52394 52.7085C8.02669 53.104 7.53337 53.3673 7.04397 53.4985C5.91834 53.8001 5.19489 53.3513 4.87361 52.1523C4.7228 51.5895 4.73345 50.9441 4.90556 50.2161L2.21361 50.7407L4.93036 56.6219L7.52523 62.9292ZM20.1857 65.3986L24.2207 64.1601C24.343 64.1273 24.591 64.074 24.9646 64.0001C25.3627 63.9196 25.8986 63.8154 26.5724 63.6873L26.0903 59.6857C24.2003 58.0153 22.3557 56.8573 20.5566 56.2116C20.6073 56.3029 20.6425 56.3853 20.6622 56.4587C20.6818 56.5321 20.6982 56.5933 20.7113 56.6422C20.8621 57.205 20.7662 57.5323 20.4237 57.6241C20.179 57.6897 19.9862 57.5577 19.8455 57.2283L19.2686 55.8092C16.2596 55.9336 14.5682 55.2984 14.1945 53.9036C13.847 52.6067 14.7756 51.3743 16.9805 50.2065L15.7211 47.1213L14.2896 47.5049L13.9103 49.6129C13.5376 50.4734 12.7299 51.2274 11.4872 51.8751C11.614 52.8378 11.7172 53.8592 11.7969 54.9394C11.8944 55.9886 11.9895 57.0777 12.0823 58.2069C12.3025 58.1479 12.5015 58.1077 12.6794 58.0862C12.8817 58.0582 13.0694 58.0735 13.2424 58.1321C13.4155 58.1906 13.6971 58.3118 14.0874 58.4958C14.4955 58.6487 15.031 58.8855 15.694 59.2062C15.6708 58.9239 15.6354 58.6449 15.5877 58.3691C15.5401 58.0934 15.4957 57.8299 15.4546 57.5787C15.4052 57.1985 15.5273 56.9691 15.8209 56.8904C16.139 56.8051 16.3938 56.9729 16.5852 57.3937L17.8296 60.1289C18.7992 60.4198 19.5956 60.4556 20.2187 60.2362C21.031 59.9398 21.7621 59.9275 22.4119 60.1993C22.9442 60.4238 23.2955 60.8542 23.466 61.4904C23.6168 62.0532 23.531 62.6139 23.2086 63.1724C22.904 63.6998 22.3847 64.0619 21.6506 64.2586C21.1123 64.4029 20.4645 64.4322 19.7072 64.3466L20.1857 65.3986ZM13.0649 67.3066L15.0837 66.7657C15.7689 66.5821 16.1095 66.1892 16.1055 65.5871L16.0851 64.9237C15.9317 64.9386 15.7816 64.9657 15.6348 65.0051C15.5125 65.0378 15.3901 65.0706 15.2678 65.1034C14.0198 65.4378 13.2855 66.1722 13.0649 67.3066Z" fill="url(#paint0_linear_1_2185)"/>
<path d="M46.9448 59.9989C45.9935 60.0702 45.1532 60.1642 44.4239 60.2809C43.6946 60.3977 43.0608 60.5281 42.5224 60.6724C42.2533 60.7445 41.9841 60.8166 41.7149 60.8888C41.4702 60.9543 41.2198 61.0477 40.9638 61.1687L40.9271 61.1786C40.7803 61.2179 40.6415 61.1895 40.5108 61.0934C40.3802 60.9973 40.3041 60.8603 40.2827 60.6824C39.9981 58.7392 39.7285 57.146 39.4741 55.9028C39.2376 54.6286 39.0595 53.7191 38.9397 53.1742L37.4145 46.895C37.1964 45.983 36.9527 45.5631 36.6836 45.6352C36.3899 45.7139 36.2785 46.0323 36.3494 46.5903C36.5387 47.982 36.6845 49.1625 36.7869 50.1317C36.9071 51.0699 37.0149 51.8147 37.1102 52.3662C37.2038 52.8132 37.0792 53.0826 36.7367 53.1744C36.4675 53.2465 36.1166 53.2094 35.684 53.063C35.2514 52.9167 34.839 52.6993 34.4471 52.411C34.0795 52.116 33.8099 51.7949 33.6381 51.4475C33.5612 51.2583 33.4876 51.0813 33.4172 50.9166C33.3403 50.7274 33.2666 50.5504 33.1963 50.3857C32.6649 50.9477 32.3239 51.6816 32.1733 52.5875C32.0471 53.4868 32.0318 54.4088 32.1276 55.3535C32.2234 56.2983 32.3386 57.1198 32.4733 57.8181C32.6997 58.8589 33.147 59.6963 33.8152 60.3303C34.4768 60.9399 35.24 61.1943 36.1048 61.0938L38.1289 60.8661C37.9916 60.7455 37.8201 60.5948 37.6143 60.4139C37.4329 60.2265 37.2173 60.0089 36.9673 59.7611C36.678 59.3666 36.4874 58.998 36.3956 58.6554C36.3628 58.5331 36.3274 58.254 36.2894 57.8184C36.2692 57.3517 36.253 56.7528 36.2407 56.0218C36.238 55.1308 36.4569 54.6263 36.8974 54.5082C37.2644 54.4099 37.6068 54.8558 37.9246 55.846C38.113 56.4511 38.2793 57.0229 38.4235 57.5613C38.5678 58.0996 38.7022 58.6012 38.8268 59.0662L39.4071 61.2318C39.5185 61.6478 39.3564 61.8748 38.9208 61.9128C36.6135 62.1114 34.3179 62.4512 32.0339 62.932C31.6668 63.0304 31.4604 62.9939 31.4145 62.8226C31.3948 62.7492 31.4345 62.555 31.5337 62.2399C31.6329 61.9248 31.7222 61.5731 31.8017 61.1846C31.8812 60.7961 31.8882 60.4795 31.8226 60.2348L30.1581 50.0589C29.9824 49.1093 29.6976 47.7038 29.3037 45.8423C28.9343 43.9743 28.4713 41.6592 27.9148 38.8971C27.8934 38.7193 27.7112 38.4796 27.3681 38.1782C27.0495 37.8701 26.8607 37.606 26.8017 37.3857C26.7392 36.9566 26.9013 36.7296 27.288 36.7047C28.3861 36.594 29.2264 36.5 29.8089 36.4226C30.4159 36.3387 30.7838 36.2925 30.9127 36.2842C31.0351 36.2514 31.3499 36.154 31.8572 35.9918C32.389 35.8231 33.101 35.5929 33.9933 35.3014C34.1401 35.2621 34.2822 35.3027 34.4194 35.4233C34.5745 35.5128 34.6717 35.631 34.7111 35.7779L35.5722 41.4875C36.3888 40.718 37.1765 40.2315 37.935 40.0283C38.6691 39.8316 39.5234 39.8387 40.4979 40.0497C41.4724 40.2607 42.2373 40.6196 42.7928 41.1264C43.3727 41.6267 43.8167 42.4519 44.1249 43.602C44.197 43.8712 44.2643 44.2203 44.3269 44.6494C44.4139 45.072 44.5083 45.5712 44.6101 46.1471C44.7138 46.8275 44.8403 47.5935 44.9899 48.4451C45.1394 49.2968 45.2751 50.2439 45.3971 51.2866C45.4203 51.5688 45.3585 51.7296 45.2117 51.769C45.0893 51.8018 44.9384 51.7767 44.7588 51.6936C44.5971 51.5796 44.4998 51.4614 44.467 51.3391L43.9182 48.8503C41.8007 49.3653 40.5026 48.7296 40.0239 46.9432C39.8272 46.2091 39.6988 44.6044 39.6388 42.1289C39.6269 41.7911 39.5091 41.5473 39.2854 41.3974C39.0551 41.2231 38.8298 41.1654 38.6096 41.2244C38.0223 41.3818 37.2549 42.3349 36.3072 44.0838L36.4173 44.0543C37.1269 43.8641 37.6577 44.1809 38.0095 45.0046C38.1931 45.6897 38.3979 46.3561 38.6239 47.0037C38.8743 47.6447 39.31 48.341 39.931 49.0925C40.5455 49.8196 40.9067 50.2867 41.0146 50.4938C41.0719 50.6096 41.1169 50.7287 41.1497 50.851C41.207 50.9668 41.252 51.0859 41.2848 51.2082C41.4093 51.6732 41.4671 52.1823 41.4579 52.7355C41.4667 53.2577 41.4388 53.7897 41.3742 54.3315C41.2078 55.7661 41.3056 57.012 41.6675 58.069C41.751 58.2826 41.9666 58.5002 42.3145 58.7218C42.6623 58.9433 43.0615 59.1117 43.5121 59.227C43.9871 59.3358 44.4081 59.341 44.7751 59.2426C45.6561 59.0066 45.9741 58.187 45.7293 56.7839C45.672 56.6681 45.547 56.5442 45.3543 56.4123C45.1861 56.2738 44.92 56.1615 44.5559 56.0754C43.8458 55.8723 43.4351 55.5628 43.3236 55.1468C43.2318 54.8042 43.2549 54.3521 43.393 53.7906C43.6975 53.2631 44.1189 52.9273 44.6573 52.783C45.3669 52.5929 45.7464 52.6879 45.7958 53.0681C45.9383 53.502 46.1383 54.2483 46.3958 55.3071C46.6467 56.3414 46.9918 57.6783 47.4311 59.3178C47.5426 59.7338 47.3805 59.9608 46.9448 59.9989ZM32.747 47.2408C32.8911 46.3105 33.3455 45.5593 34.1102 44.9872C34.0822 44.7849 34.0721 44.5515 34.0799 44.2872C34.0878 44.0228 34.1446 43.7453 34.2503 43.4547C34.4552 42.849 34.4958 41.9727 34.372 40.8256C34.2482 39.6786 34.0001 38.2632 33.6277 36.5796C32.197 37.0154 31.015 37.2534 30.0817 37.2937C30.2797 37.739 30.4213 38.1206 30.5065 38.4388C30.6573 39.0016 30.5614 39.3289 30.2188 39.4207L30.0353 39.4698C29.9554 39.465 29.8909 39.4692 29.842 39.4823C29.5483 39.561 29.4426 39.8516 29.5248 40.3541C29.6087 40.9611 29.7189 41.6659 29.8553 42.4686C29.9917 43.2713 30.1421 44.1752 30.3065 45.1802C30.3918 45.4983 30.6924 45.8374 31.2085 46.1974C31.7246 46.5575 32.2374 46.9052 32.747 47.2408Z" fill="url(#paint1_linear_1_2185)"/>
<path d="M55.6773 58.2491C54.4049 58.59 53.2495 58.5849 52.2112 58.2337C51.1908 57.8514 50.3138 57.2209 49.58 56.3422C48.8397 55.439 48.3089 54.3879 47.9876 53.1889C47.6008 51.7452 47.6791 50.3735 48.2226 49.0739C48.8246 47.6012 49.9711 46.3498 51.6621 45.3197C52.0519 45.1104 52.5208 44.8536 53.0687 44.5494C53.6411 44.2387 54.2926 43.8805 55.0232 43.475L55.0966 43.4553C55.0883 43.3264 55.0678 43.2008 55.035 43.0784C55.0267 42.9495 54.9996 42.7994 54.9537 42.6281C54.9209 42.5058 54.8881 42.3834 54.8553 42.2611C54.8225 42.1387 54.7775 42.0196 54.7202 41.9038C54.4501 41.1894 54.2432 40.7597 54.0994 40.6146C53.8578 40.4958 53.6268 40.4659 53.4066 40.5249C52.7704 40.6953 52.6675 41.3392 53.098 42.4565L53.1275 42.5667C53.2128 42.8848 53.0719 43.093 52.7048 43.1914C52.0734 43.2819 51.4518 43.4091 50.84 43.573C50.2283 43.7369 49.6264 43.9375 49.0343 44.1749C48.4667 44.4056 47.8811 44.6674 47.2777 44.9603L47.2043 44.9799C46.9107 45.0586 46.6902 44.921 46.5429 44.567C45.2539 40.6374 47.2675 37.7768 52.5836 35.9852C52.7483 35.9148 52.9041 35.86 53.0509 35.8206C53.1977 35.7813 53.3568 35.7387 53.5281 35.6928C55.4612 35.1748 57.0498 35.1819 58.294 35.714C58.8883 35.9744 59.442 36.3768 59.955 36.9212C60.4615 37.4412 60.8907 38.113 61.2425 38.9367C61.3833 39.2661 61.6084 39.8615 61.9178 40.7227C62.2273 41.584 62.6023 42.6899 63.0429 44.0406C63.2444 44.6947 63.4876 45.4557 63.7726 46.3235C64.0755 47.1603 64.4127 48.0272 64.7842 48.9243C65.1802 49.8148 65.5997 50.6466 66.0429 51.4196C66.4795 52.1681 66.9535 52.7623 67.4648 53.2023C67.5954 53.2984 67.607 53.4396 67.4995 53.6257C67.41 53.7809 67.2673 53.8847 67.0715 53.9371L61.2302 55.1876C61.0589 55.2335 60.9273 55.0851 60.8355 54.7426C60.7044 54.2532 60.9023 53.9641 61.4293 53.8753L65.9323 53.0622C64.7974 52.4483 63.9098 51.1912 63.2695 49.2909C63.0286 48.4899 62.8 47.6857 62.5836 46.8782C62.3673 46.0706 62.1476 45.2509 61.9247 44.4189C61.8526 44.1497 61.7064 44.0447 61.4861 44.1037C61.4372 44.1168 61.3426 44.1552 61.2023 44.219C61.0865 44.2763 60.9194 44.3867 60.7009 44.5501C60.458 44.7201 60.2264 44.8346 60.0062 44.8936C59.8594 44.933 59.7582 44.947 59.7027 44.9356C58.2108 44.6534 57.2813 43.8272 56.9141 42.4569C56.7109 41.6983 56.7499 40.9141 57.0313 40.1044C57.1191 39.8448 57.1269 39.5805 57.0548 39.3113C56.8778 38.6506 56.1982 38.0721 55.0161 37.5758C53.9761 37.1201 53.2913 36.9626 52.9619 37.1034C51.086 37.7372 49.6582 38.5262 48.6786 39.4706C48.1163 40.0147 47.8876 40.4825 47.9925 40.874C48.1039 41.29 48.5914 41.5922 49.4549 41.7804C50.0038 42.2628 50.793 42.4185 51.8225 42.2476C51.4828 40.6863 51.9247 39.7417 53.1482 39.4139C53.8089 39.2368 54.332 39.2803 54.7174 39.5442C55.1029 39.8081 55.3889 40.1904 55.5755 40.6912C55.7866 41.1854 55.9643 41.7016 56.1086 42.24C56.3905 43.2922 56.3586 43.9564 56.013 44.2326C55.8435 44.3829 55.6005 44.5529 55.2842 44.7426C54.9923 44.9257 54.627 45.1285 54.1883 45.351C53.1951 45.8532 52.5615 46.1803 52.2875 46.3324C52.087 46.4648 51.747 46.7132 51.2677 47.0777C50.7884 47.4422 50.3589 47.8458 49.9792 48.2885C49.6174 48.7001 49.4791 49.065 49.5643 49.3831C49.6234 49.6034 49.9548 49.7637 50.5587 49.8642C51.2802 50.0118 51.9178 50.2868 52.4714 50.6892C53.043 51.0606 53.4338 51.6378 53.6436 52.4209C53.7288 52.739 53.7872 53.1036 53.8187 53.5148C53.8436 53.9016 53.8172 54.3414 53.7395 54.8343C53.7072 55.1052 53.4806 55.3364 53.0598 55.5278C52.639 55.7193 52.4793 55.9063 52.5807 56.0889C52.7638 56.3808 53.2292 56.6495 53.9769 56.895C54.7246 57.1406 55.2999 57.1831 55.7028 57.0227C57.5542 56.3955 58.5932 55.3303 58.8199 53.8271C58.8701 53.5251 59.0421 53.3348 59.3357 53.2561C59.8006 53.1315 60.0154 53.2969 59.9801 53.7522C59.977 53.9366 59.9137 54.1897 59.79 54.5113C59.6843 54.8019 59.5371 55.1823 59.3484 55.6525C58.5405 56.9443 57.3168 57.8098 55.6773 58.2491ZM56.9813 53.5722C56.2227 53.7755 55.5356 53.658 54.9198 53.2198C54.2975 52.7571 53.888 52.1587 53.6913 51.4246C53.5191 50.6839 53.5533 49.9797 53.7941 49.312C54.0592 48.6377 54.433 48.0261 54.9154 47.4772C55.4222 46.9218 55.9676 46.461 56.5513 46.0947C56.5937 46.0571 56.6883 46.0187 56.8351 45.9793C56.9575 45.9466 57.1076 45.9195 57.2854 45.898C57.4877 45.87 57.7178 45.8477 57.9756 45.8311C58.7246 45.7878 59.122 45.8518 59.1679 46.0231C59.1942 46.1209 59.2947 46.2514 59.4695 46.4143C59.6622 46.5463 59.9202 46.7263 60.2436 46.9544C60.8969 47.435 61.2892 47.92 61.4203 48.4094C61.5973 49.0701 61.505 49.6063 61.1432 50.0179C60.8059 50.4231 60.3313 50.7076 59.7196 50.8715L59.0589 51.0485C58.8876 51.0944 58.784 51.1484 58.7482 51.2104C58.7448 52.4702 58.1559 53.2575 56.9813 53.5722ZM56.483 52.4468C57.4129 52.1977 57.7467 51.5837 57.4844 50.6049C57.4123 50.3357 57.2952 49.9475 57.133 49.4402C56.9708 48.9329 56.7759 48.3032 56.5482 47.5512C55.1298 48.718 54.5691 49.9042 54.8659 51.1098L54.9151 51.2934C55.02 51.6849 55.2219 51.998 55.5208 52.2326C55.8197 52.4672 56.1405 52.5386 56.483 52.4468Z" fill="url(#paint2_linear_1_2185)"/>
<path d="M74.0337 52.3077C73.4154 52.4471 72.7228 52.554 71.9559 52.6284C71.2135 52.6962 70.5117 52.6219 69.8505 52.4057C69.1894 52.1894 68.6691 51.765 68.2898 51.1322C68.2325 51.0164 68.1654 50.864 68.0885 50.6747C68.0361 50.479 67.9672 50.222 67.882 49.9039C67.7574 49.439 67.6188 48.8729 67.4663 48.2057C67.3071 47.5139 67.143 46.7056 66.9738 45.7805C66.1563 41.7508 65.5884 39.0442 65.2702 37.6607L64.6364 37.7912C64.2383 37.8717 63.999 37.7128 63.9186 37.3148L63.3225 34.2092C63.2731 33.8291 63.4352 33.602 63.8088 33.5282L64.4426 33.3977L64.3443 33.0306C64.3425 32.9262 64.3285 32.825 64.3023 32.7271C64.2761 32.6293 64.2499 32.5314 64.2236 32.4335C64.0269 31.6994 63.6721 31.0601 63.159 30.5157L63.1492 30.479C63.1098 30.3322 63.1382 30.1934 63.2343 30.0628C63.3484 29.9011 63.4821 29.8128 63.6355 29.7979L66.5503 29.371L70.2968 28.5244C70.6884 28.4195 70.9243 28.5661 71.0048 28.9642L71.5812 31.9963L72.4451 31.8435C72.8742 31.781 73.1012 31.9431 73.1261 32.3298L73.359 34.6672C73.3905 35.0784 73.0637 35.3758 72.3785 35.5594C72.2073 35.6053 72.0082 35.6455 71.7814 35.68C71.5791 35.708 71.3735 35.7238 71.1646 35.7273C71.329 36.7323 71.4746 37.7161 71.6014 38.6788C71.7527 39.6349 71.904 40.591 72.0553 41.5471C72.4789 43.7153 72.8316 45.3255 73.1136 46.3777C73.1988 46.6959 73.2709 46.965 73.33 47.1853C73.4069 47.3745 73.4707 47.5147 73.5214 47.6061C73.5769 47.6174 73.7703 47.6049 74.1015 47.5686C74.4261 47.5079 74.8764 47.4266 75.4524 47.3247C75.8815 47.2622 76.1085 47.4243 76.1334 47.811L76.3047 49.7715C76.3619 49.8873 76.407 50.0063 76.4397 50.1287C76.4725 50.251 76.502 50.3611 76.5283 50.459C76.6791 51.0218 76.5661 51.4324 76.1895 51.6907C76.1226 51.7348 75.404 51.9405 74.0337 52.3077ZM73.8022 51.1501C74.2051 50.9897 74.5433 50.6368 74.8168 50.0915C75.0837 49.5216 75.1737 49.0254 75.0867 48.6029C74.6087 48.6785 74.2163 48.7312 73.9095 48.7609C73.6272 48.7841 73.4184 48.7876 73.2829 48.7715C72.759 48.6758 72.4133 48.2177 72.2458 47.3971L70.981 41.7956L69.9061 35.435C69.8436 35.0059 70.0024 34.7667 70.3826 34.7173C70.4136 34.7352 70.5458 34.7391 70.7791 34.729C71.0059 34.6945 71.1805 34.6608 71.3028 34.628C72.0125 34.4379 72.2713 33.9358 72.0794 33.1217C72.0305 33.1348 71.9147 33.1921 71.7321 33.2935C71.5429 33.3704 71.3748 33.4285 71.228 33.4679C70.7876 33.5859 70.5149 33.4491 70.41 33.0576C70.3903 32.9842 70.3787 32.8431 70.3752 32.6342C70.3712 32.032 70.3102 31.5107 70.1922 31.0703C69.9496 30.1649 69.4735 29.8073 68.7638 29.9974L67.5159 30.3318L65.1444 30.7312C65.3192 30.8942 65.4907 31.0449 65.659 31.1834C65.8517 31.3154 66.02 31.4539 66.1637 31.5989L67.9296 32.4633C68.5633 32.8705 68.9293 33.2577 69.0276 33.6247C69.0604 33.7471 69.0427 33.9747 68.9746 34.3077C68.9309 34.6341 68.7968 35.0635 68.5723 35.5957C68.1118 36.7158 67.9209 37.4226 67.9996 37.7162C68.0651 37.9609 68.4344 38.3603 69.1074 38.9143C69.818 39.5107 70.2028 39.919 70.2618 40.1393C70.406 40.6776 70.0989 41.0484 69.3403 41.2517C68.8998 41.3697 68.1655 41.3698 67.1373 41.2519L67.7799 44.3843L67.8835 45.0646L67.9425 45.2849C67.9884 45.4562 68.0546 45.5564 68.1412 45.5857C68.1835 45.5481 68.2537 45.5162 68.3516 45.49C68.8654 45.3523 69.3682 45.4668 69.8598 45.8333C70.3759 46.1934 70.8105 46.6408 71.1637 47.1756C71.5412 47.7039 71.7825 48.1638 71.8874 48.5553C72.0972 49.3383 71.7372 49.8545 70.8073 50.1036C70.269 50.2479 69.6627 50.1874 68.9884 49.9222C69.3337 50.7214 70.067 51.2068 71.1883 51.3785C72.1806 51.5584 73.052 51.4823 73.8022 51.1501Z" fill="url(#paint3_linear_1_2185)"/>
<path d="M86.945 24.4963C86.6514 24.575 86.3813 24.5949 86.1349 24.556C83.4173 24.104 81.9221 23.0753 81.6492 21.4698C81.3336 19.5087 81.6177 18.3179 82.5017 17.8975C82.593 17.8468 82.6876 17.8083 82.7855 17.7821C82.8768 17.7314 82.9714 17.6929 83.0693 17.6667C83.1672 17.6405 83.2683 17.6265 83.3728 17.6247C83.4707 17.5985 83.5718 17.5845 83.6763 17.5828C83.7658 17.4276 83.9207 17.3205 84.141 17.2615C84.4101 17.1894 84.7846 17.1678 85.2644 17.1966C86.2795 17.2655 87.1513 17.5827 87.8798 18.1481C88.6017 18.689 89.0971 19.4611 89.3659 20.4643C89.5299 21.0761 89.4864 21.5992 89.2356 22.0335C88.8415 22.7161 88.4547 23.2788 88.075 23.7215C87.7132 24.1331 87.3365 24.3914 86.945 24.4963ZM86.5497 23.4614C87.23 23.3578 87.7404 23.0112 88.0807 22.4217C88.439 21.8011 88.5296 21.1605 88.3526 20.4998C88.2542 20.1328 88.0392 19.7708 87.7075 19.4138C87.3937 19.0258 87.0229 18.7186 86.5951 18.4923C86.1852 18.2349 85.7935 18.1432 85.4199 18.2171C85.2307 18.294 85.0047 18.3808 84.7421 18.4774C84.473 18.5495 84.1638 18.6192 83.8147 18.6865C83.5293 18.8941 83.1658 19.2014 82.724 19.6082C82.8333 19.5265 82.9613 19.466 83.1081 19.4266C83.255 19.3873 83.414 19.3447 83.5853 19.2988C83.7077 19.266 83.83 19.2332 83.9524 19.2004C84.0992 19.1611 84.2493 19.134 84.4026 19.1191C84.9052 19.0369 85.3891 19.1302 85.8545 19.3989C86.3199 19.6676 86.6215 20.0588 86.7592 20.5727C86.8051 20.744 86.8151 20.9774 86.7894 21.2728C86.7815 21.5371 86.72 21.8946 86.6046 22.3451C86.5186 22.7091 86.5003 23.0812 86.5497 23.4614ZM89.681 48.5084C89.3874 48.5871 89.1669 48.4494 89.0196 48.0955C88.9737 47.9242 89.046 47.6557 89.2365 47.2899C89.4204 46.8997 89.4927 46.6311 89.4534 46.4843C87.9405 40.9362 87.058 37.7894 86.8058 37.0439C86.6502 36.561 86.398 35.8156 86.0492 34.8075C85.7183 33.7684 85.2819 32.4822 84.7399 30.9489C84.7006 30.8021 84.5837 30.6105 84.3892 30.3741C84.1882 30.1132 83.9871 29.8524 83.7861 29.5915C83.5851 29.3307 83.4461 29.1056 83.3692 28.9164C83.3233 28.7451 83.3451 28.5819 83.4347 28.4268C83.4998 28.2782 83.6057 28.1843 83.7525 28.1449C84.7445 27.9316 85.5162 27.7773 86.0676 27.682C86.6125 27.5622 86.9461 27.4859 87.0685 27.4531C87.1908 27.4203 87.5236 27.2918 88.0667 27.0676C88.6343 26.8368 89.4034 26.5259 90.3739 26.1347C90.5207 26.0953 90.6684 26.1082 90.817 26.1733C90.9656 26.2384 91.0628 26.3566 91.1087 26.5279C91.207 26.895 91.3251 27.3354 91.4628 27.8493C91.6249 28.3566 91.81 28.9496 92.0181 29.6282C92.2393 30.3557 92.4309 30.9732 92.5931 31.4805C92.7553 31.9878 92.8724 32.376 92.9445 32.6452C93.0035 32.8654 93.0031 33.2065 92.9433 33.6684C92.8835 34.1303 92.8863 34.4836 92.9519 34.7283C93.0354 34.9419 93.2397 35.215 93.5648 35.5475C93.9145 35.8735 94.131 36.1433 94.2145 36.357C94.7552 38.1791 95.5564 40.8756 96.6181 44.4465L97.7502 45.4414C97.7812 45.4593 97.8033 45.4928 97.8164 45.5417C97.9082 45.8843 97.755 46.0958 97.357 46.1762C97.0013 46.2191 96.6399 46.2897 96.2728 46.388C95.9303 46.4798 95.5754 46.5749 95.2084 46.6733C93.4955 47.1322 91.6775 47.7374 89.7544 48.4887L89.681 48.5084ZM91.761 35.7162C91.7217 35.5693 91.6791 35.4103 91.6332 35.239C91.5873 35.0677 91.5536 34.8931 91.5322 34.7153L90.1747 27.4469C88.3876 28.6077 87.4173 29.1955 87.264 29.2104C86.5705 29.2651 86.3287 29.6839 86.5385 30.467C86.6106 30.7362 86.7218 30.9555 86.8722 31.125C87.3983 31.7184 87.7956 32.3201 88.0639 32.9301C88.3568 33.5335 88.5753 34.1044 88.7196 34.6428C88.7947 34.7275 89.2208 34.8494 89.9977 35.0084C90.7192 35.156 91.307 35.392 91.761 35.7162ZM92.2929 46.5103C92.8557 46.3595 93.2177 46.1445 93.3789 45.8652C93.5401 45.586 93.6653 45.1722 93.7544 44.6237C93.8321 44.1308 94.3058 43.7941 95.1754 43.6136L94.8705 42.4757C94.641 41.6192 94.3781 40.7849 94.0817 39.9725C93.8033 39.1292 93.4124 38.3553 92.9089 37.651C93.152 38.9497 92.7841 39.7301 91.8053 39.9924C91.5851 40.0514 91.2694 40.0967 90.8582 40.1282C90.447 40.1597 90.168 40.1951 90.0211 40.2344C89.9233 40.2606 89.8319 40.3113 89.7472 40.3865L90.4797 45.0291C90.6852 46.2854 91.2896 46.7791 92.2929 46.5103Z" fill="url(#paint4_linear_1_2185)"/>
<path d="M106.515 44.2337C105.952 44.3845 105.275 44.5004 104.484 44.5813C103.724 44.6801 102.935 44.721 102.117 44.7041C101.317 44.6561 100.571 44.515 99.8792 44.2808C99.1805 44.0222 98.6301 43.632 98.228 43.1103C98.1021 42.9342 98.7293 42.0449 100.11 40.4424C101.412 38.9395 102.173 38.1586 102.393 38.0996C102.442 38.0865 102.482 38.0889 102.513 38.1068C102.657 38.2519 102.909 38.4596 103.27 38.7301C103.631 39.0005 103.998 39.2432 104.37 39.4582C104.767 39.6666 105.051 39.7479 105.222 39.702C106.03 39.4856 106.329 38.9859 106.119 38.2028C106.033 37.8847 105.702 37.5277 105.124 37.1319C104.962 37.0179 103.748 36.6481 101.482 36.0225C99.8402 35.5708 98.6075 34.9832 97.7842 34.2596C96.8302 33.4399 96.2111 32.2551 95.9269 30.7052C95.6886 29.3265 95.7395 28.1458 96.0793 27.163C96.4192 26.1803 97.1598 25.2737 98.3011 24.4433C98.787 24.1033 99.3194 23.7902 99.8984 23.5039C100.502 23.2111 101.158 22.9696 101.868 22.7795C102.724 22.55 103.65 22.433 104.646 22.4285C105.635 22.3996 106.572 22.5682 107.457 22.9343C108.335 23.276 109.021 23.8789 109.515 24.7432C109.285 24.9622 108.937 25.2784 108.471 25.6918C107.998 26.0807 107.495 26.504 106.962 26.9615C106.447 27.3881 105.959 27.7681 105.497 28.1015C105.036 28.435 104.683 28.6345 104.438 28.7C104.389 28.7132 104.349 28.7108 104.318 28.6929C103.726 27.8548 103.271 27.4784 102.953 27.5636C102.611 27.6554 102.534 28.0561 102.725 28.7657C102.882 29.353 103.168 29.7354 103.583 29.9127C104.09 30.1438 105.251 30.4623 107.065 30.8681C108.348 31.1538 109.412 31.6029 110.258 32.2155C111.104 32.828 111.708 33.8072 112.068 35.1531C112.232 35.7649 112.288 36.3661 112.237 36.9569C112.079 38.9137 111.498 40.512 110.492 41.7518C109.505 42.9606 108.179 43.7879 106.515 44.2337ZM104.972 27.0227C104.972 27.0227 105.319 26.6543 106.013 25.9175C106.279 25.6365 106.661 25.3504 107.16 25.0594C107.544 24.8256 107.701 24.6785 107.632 24.6182C106.631 23.5228 105.041 23.2668 102.863 23.8504C101.835 24.1258 100.786 24.5644 99.7144 25.1662C100.033 25.4742 100.394 26.138 100.799 27.1574C101.049 26.723 101.456 26.4304 102.019 26.2796C102.435 26.1682 102.859 26.1856 103.292 26.332C103.743 26.4473 104.219 26.6605 104.722 26.9716C104.815 27.0253 104.899 27.0423 104.972 27.0227ZM105.965 36.1591C105.814 35.9896 105.703 35.7702 105.631 35.501C105.48 34.9382 105.588 34.411 105.954 33.9194C106.315 33.4033 106.886 33.0403 107.669 32.8305C107.816 32.7912 107.966 32.7641 108.119 32.7492C108.266 32.7099 108.416 32.6827 108.57 32.6679C107.349 32.418 106.133 32.0882 104.921 31.6784C103.71 31.2687 102.52 30.8401 101.351 30.3927C100.535 30.0869 100.066 29.806 99.9448 29.5499C99.7866 29.6448 99.5828 29.7649 99.3333 29.9105C99.0772 30.0315 98.76 30.169 98.3816 30.3228C97.765 30.5667 97.4601 30.7009 97.4666 30.7254C97.6454 31.4905 98.0407 31.7911 98.6524 31.6272C98.7748 31.5944 98.9917 31.5232 99.3033 31.4135C99.6148 31.3037 99.8563 31.2259 100.028 31.18C100.566 31.0358 101.153 31.0751 101.79 31.2979C102.42 31.4962 102.814 31.889 102.971 32.4763C103.129 33.0636 102.644 33.8491 101.518 34.8328C102.505 35.0927 103.373 35.3455 104.121 35.591C104.862 35.812 105.476 36.0014 105.965 36.1591ZM106.284 43.0762C108.192 42.5648 109.507 41.793 110.227 40.7608C109.329 40.739 108.384 40.0482 107.39 38.6884C107.44 39.4619 106.991 40.1853 106.044 40.8588C105.776 41.0353 105.414 41.2504 104.958 41.5039C104.525 41.7508 104.008 42.0207 103.404 42.3135C102.471 42.747 102.021 43.025 102.054 43.1474C102.08 43.2452 102.244 43.3193 102.546 43.3695C103.668 43.5411 104.913 43.4434 106.284 43.0762Z" fill="url(#paint5_linear_1_2185)"/>
<path d="M126.026 39.0451C125.855 39.091 125.679 39.0725 125.5 38.9895C125.32 38.9065 125.254 38.8062 125.301 38.6886C125.532 38.1808 125.666 37.7515 125.703 37.4006C125.734 37.0252 125.739 36.7486 125.717 36.5708C125.712 36.6508 125.657 36.495 125.553 36.1035C125.448 35.7119 125.271 35.1035 125.024 34.278L123.205 28.0775L120.875 21.5814L119.31 19.5614C119.235 19.4766 119.191 19.4097 119.178 19.3608C119.132 19.1895 119.207 19.0776 119.403 19.0252C120.927 18.6431 122.055 18.3538 122.79 18.1571C123.524 17.9604 123.845 17.8874 123.754 17.9381C124.279 17.7449 124.791 17.5027 125.29 17.2117C125.807 16.8896 126.114 16.7154 126.212 16.6892C126.432 16.6302 126.641 16.7711 126.837 17.1119C127.033 17.4527 127.199 17.8279 127.335 18.2373C127.496 18.6402 127.602 18.9395 127.654 19.1353C127.58 19.4438 127.432 19.6275 127.212 19.6865C126.87 19.7783 126.636 19.5918 126.511 19.1268L126.197 17.9523L123.956 18.9855C123.533 19.0725 123.199 19.2932 122.953 19.6476C122.707 20.002 122.64 20.3872 122.751 20.8032C122.876 21.2681 123.248 21.6797 123.869 22.038C125.017 22.7008 125.669 23.3258 125.827 23.9131C125.997 24.5493 125.716 25.1624 124.982 25.7524C124.548 25.8949 124.1 26.1329 123.639 26.4663L124.769 30.0975C126.279 30.3486 127.277 31.3796 127.762 33.1904C128.162 34.6831 128.001 36.0899 127.28 37.411L129.958 35.5132C130.624 35.6494 131.006 35.7045 131.104 35.6782C131.446 35.5864 131.519 35.1735 131.322 34.4394C131.29 34.317 131.241 34.1857 131.178 34.0455C131.132 33.8742 131.07 33.6939 130.993 33.5047L128.915 31.0325C128.676 30.7292 128.461 30.3672 128.27 29.9464C128.103 29.5191 127.947 29.0362 127.803 28.4979C127.724 28.2043 127.639 27.8862 127.547 27.5436C127.473 27.17 127.377 26.7629 127.259 26.3225C127.108 25.7597 127.022 25.1927 127 24.6216C126.972 24.026 127.044 23.4164 127.218 22.7928C127.322 22.3978 127.427 22.0549 127.533 21.7643C127.639 21.4737 127.764 21.2566 127.909 21.1128C128.072 20.938 128.318 20.7802 128.648 20.6395C128.763 20.5822 128.883 20.5372 129.005 20.5044C129.127 20.4716 129.237 20.4421 129.335 20.4159C129.604 20.3438 129.852 20.2904 130.079 20.2559C130.33 20.2148 130.569 20.177 130.796 20.1424C130.631 19.8195 130.509 19.5112 130.43 19.2176C130.273 18.6303 130.299 17.9939 130.509 17.3082L130.787 16.2896C130.747 16.1428 130.563 16.1398 130.233 16.2805C129.726 16.4426 129.305 16.6341 128.971 16.8548C128.661 17.0689 128.444 17.4812 128.319 18.0917L128.302 18.1749C128.229 18.1946 128.137 18.0487 128.027 17.7371C127.942 17.419 127.926 17.2134 127.98 17.1203C128.267 16.6239 128.549 16.2074 128.826 15.8709C129.103 15.5344 129.446 15.2982 129.855 15.1623C131.793 14.5643 133.318 14.8244 134.431 15.9426C135.263 16.795 135.954 18.249 136.505 20.3045L137.37 23.5346L139.431 29.3162C139.644 29.9149 139.824 30.3912 139.971 30.7451C140.118 31.099 140.23 31.3184 140.305 31.4032L141.65 32.459C141.78 32.5551 141.874 32.6611 141.932 32.7769C141.982 32.8682 142.021 32.9628 142.047 33.0607C142.159 33.4767 141.26 33.9404 139.351 34.4518L134.516 35.7868C134.149 35.8851 133.892 35.7573 133.744 35.4034L130.049 23.9619C129.628 22.6846 129.339 21.949 129.183 21.755C129.152 21.7371 129.087 21.7413 128.989 21.7675C128.971 21.7985 128.938 21.8206 128.889 21.8337C128.864 21.8403 128.843 21.859 128.825 21.8901C128.796 21.9766 128.854 22.289 128.998 22.8274C129.05 23.0231 129.116 23.2678 129.195 23.5615C129.267 23.8307 129.361 24.1332 129.477 24.4693L133.258 36.0844C133.298 36.2313 133.276 36.3945 133.193 36.5741C133.128 36.7227 133.018 36.8044 132.865 36.8193C131.946 37.0129 131.218 37.1819 130.68 37.3261C130.159 37.4393 129.841 37.5246 129.725 37.5818C129.603 37.6146 129.234 37.7529 128.617 37.9968C128.031 38.2586 127.18 38.6048 126.063 39.0353L126.026 39.0451ZM135.748 34.5124L138.318 33.824C137.902 32.86 137.632 32.1456 137.507 31.6807C137.356 31.1179 137.403 30.8037 137.648 30.7381L137.832 30.6889C137.912 30.6937 137.976 30.6896 138.025 30.6764C138.319 30.5978 138.389 30.2248 138.237 29.5576L137.786 27.4359L135.377 20.6461C135.131 21.0005 134.841 21.2881 134.506 21.5088C134.557 21.6001 134.595 21.6947 134.622 21.7926C134.648 21.8905 134.677 22.0006 134.71 22.1229C135.097 23.5667 134.668 26.3699 133.423 30.5326C133.623 31.0823 133.835 31.6288 134.059 32.1719C134.277 32.6906 134.485 33.2248 134.685 33.7745C134.958 34.3045 135.312 34.5505 135.748 34.5124Z" fill="url(#paint6_linear_1_2185)"/>
<path d="M144.824 33.7721C144.678 33.8115 144.527 33.7863 144.371 33.6968C144.223 33.6317 144.141 33.5224 144.126 33.3691C144.381 32.4614 144.317 31.5346 143.932 30.5886L141.459 21.6522L139.935 18.1659L139.284 18.3797L139.21 18.3993C138.917 18.478 138.696 18.3404 138.549 17.9864L137.586 14.9793L137.556 14.8691C137.471 14.551 137.6 14.3461 137.942 14.2543L138.593 14.0405C138.516 13.8513 138.458 13.6833 138.419 13.5365C138.373 13.3652 138.327 13.1939 138.281 13.0226C138.038 12.1172 137.938 11.4491 137.98 11.0182C138.031 10.0342 138.558 9.21108 139.561 8.54897C140.564 7.88687 141.527 7.47122 142.453 7.30203L144.814 6.86594C145.408 6.73305 145.872 7.29059 146.206 8.53857C146.266 8.7588 146.319 9.00678 146.366 9.28251C146.414 9.55824 146.456 9.86171 146.492 10.1929C146.573 10.591 146.454 10.8327 146.136 10.9179C145.03 11.2929 144.413 11.5368 144.286 11.6496C144.293 11.674 144.326 11.7964 144.385 12.0166C144.437 12.2124 144.525 12.4905 144.648 12.851C145.117 12.6465 145.523 12.4983 145.866 12.4065C146.673 12.1901 147.142 12.2744 147.271 12.6594L148.028 14.8958L148.057 15.0059C148.136 15.2995 147.998 15.52 147.645 15.6673L146.847 15.9204L148.771 22.368L151.726 30.8999L151.756 31.01C151.847 31.3526 151.71 31.5731 151.343 31.6714L148.333 32.4779L144.861 33.7623L144.824 33.7721ZM145.748 32.2265L148.809 31.1702C149.67 30.8608 149.805 29.6049 149.215 27.4026C149.071 26.8642 148.93 26.4826 148.791 26.2575L147.402 23.7184C147.149 23.2618 146.933 22.8475 146.754 22.4757C146.6 22.0973 146.491 21.7857 146.425 21.541C146.307 21.1005 146.301 20.735 146.407 20.4444C146.618 19.8632 146.567 18.9853 146.252 17.8108C146.16 17.4682 146.056 17.1289 145.94 16.7929C145.817 16.4324 145.682 16.0751 145.535 15.7212C145.454 15.3231 145.585 15.0782 145.928 14.9864L146.716 14.6966C146.54 14.1404 146.227 13.7524 145.774 13.5326C145.322 13.3128 144.814 13.2784 144.252 13.4292C143.86 13.5341 143.603 13.4063 143.48 13.0458L143.286 12.4683C143.052 11.6918 143.134 11.119 143.534 10.7497C143.721 10.5683 144.27 10.3164 145.18 9.99379C145.044 9.58435 144.721 9.21186 144.212 8.87631C143.72 8.50972 143.26 8.3577 142.831 8.42022C142.726 8.42198 142.637 8.43269 142.564 8.45236C142.491 8.47203 142.405 8.49498 142.307 8.52121C141.72 8.67857 141.111 8.99914 140.48 9.48293C139.57 10.1988 139.159 10.9646 139.246 11.7804C139.228 11.8115 139.838 11.8842 141.075 11.9986C142.281 12.095 142.932 12.419 143.027 12.9704C143.162 13.6687 143.133 14.1485 142.941 14.4098C142.773 14.6646 142.387 14.9384 141.784 15.2312C141.412 15.4096 141.068 15.5936 140.752 15.7832C140.46 15.9664 140.196 16.1551 139.959 16.3496C139.923 16.4117 139.906 16.4427 139.906 16.4427C139.925 16.5161 140.078 16.6457 140.364 16.8314C140.674 17.0105 140.842 17.149 140.868 17.2469L142.079 20.1485C142.801 19.614 143.358 19.2943 143.749 19.1894C144.508 18.9862 144.973 19.2027 145.143 19.8389C145.195 20.0346 145.16 20.49 145.037 21.2049C144.925 21.8643 144.905 22.3286 144.977 22.5977C145.056 22.8914 145.435 23.4719 146.113 24.3392C146.678 25.0794 147.031 25.6142 147.172 25.9437C147.467 26.6516 147.387 27.3811 146.932 28.1323C146.496 28.8525 145.994 29.5246 145.427 30.1487C145.367 30.2173 145.402 30.4963 145.533 30.9857L145.76 31.8299C145.77 32.0632 145.766 32.1954 145.748 32.2265Z" fill="url(#paint7_linear_1_2185)"/>
<path d="M159.907 29.2981C159.288 29.4375 158.596 29.5444 157.829 29.6188C157.086 29.6866 156.385 29.6123 155.723 29.3961C155.062 29.1799 154.542 28.7554 154.163 28.1227C154.105 28.0069 154.038 27.8544 153.961 27.6652C153.909 27.4694 153.84 27.2125 153.755 26.8944C153.63 26.4294 153.492 25.8633 153.339 25.1961C153.18 24.5044 153.016 23.696 152.847 22.7709C152.029 18.7412 151.461 16.0346 151.143 14.6512L150.509 14.7816C150.111 14.8621 149.872 14.7033 149.792 14.3052L149.195 11.1996C149.146 10.8195 149.308 10.5925 149.682 10.5186L150.316 10.3881L150.217 10.021C150.215 9.9166 150.201 9.81544 150.175 9.71756C150.149 9.61968 150.123 9.5218 150.097 9.42392C149.9 8.68981 149.545 8.05055 149.032 7.50612L149.022 7.46941C148.983 7.32259 149.011 7.18385 149.107 7.05318C149.221 6.89149 149.355 6.80321 149.508 6.78834L152.423 6.36138L156.17 5.51486C156.561 5.40995 156.797 5.55654 156.878 5.95462L157.454 8.98674L158.318 8.83395C158.747 8.77142 158.974 8.93352 158.999 9.32024L159.232 11.6576C159.263 12.0688 158.937 12.3662 158.251 12.5498C158.08 12.5957 157.881 12.6359 157.654 12.6704C157.452 12.6984 157.246 12.7142 157.038 12.7177C157.202 13.7227 157.348 14.7066 157.474 15.6692C157.626 16.6253 157.777 17.5814 157.928 18.5375C158.352 20.7057 158.705 22.316 158.987 23.3682C159.072 23.6863 159.144 23.9554 159.203 24.1757C159.28 24.3649 159.344 24.5051 159.394 24.5965C159.45 24.6078 159.643 24.5954 159.974 24.5591C160.299 24.4983 160.749 24.417 161.325 24.3151C161.754 24.2526 161.981 24.4147 162.006 24.8014L162.178 26.7619C162.235 26.8777 162.28 26.9968 162.313 27.1191C162.345 27.2415 162.375 27.3516 162.401 27.4495C162.552 28.0123 162.439 28.4228 162.062 28.6811C161.996 28.7252 161.277 28.9309 159.907 29.2981ZM159.675 28.1405C160.078 27.9801 160.416 27.6273 160.69 27.0819C160.957 26.512 161.047 26.0158 160.96 25.5933C160.482 25.6689 160.089 25.7216 159.782 25.7514C159.5 25.7746 159.291 25.7781 159.156 25.7619C158.632 25.6663 158.286 25.2081 158.119 24.3875L156.854 18.786L155.779 12.4255C155.717 11.9964 155.875 11.7571 156.255 11.7077C156.287 11.7256 156.419 11.7295 156.652 11.7194C156.879 11.6849 157.053 11.6512 157.176 11.6185C157.885 11.4283 158.144 10.9262 157.952 10.1121C157.903 10.1252 157.788 10.1825 157.605 10.2839C157.416 10.3608 157.248 10.419 157.101 10.4583C156.66 10.5763 156.388 10.4396 156.283 10.048C156.263 9.97463 156.252 9.83349 156.248 9.62462C156.244 9.02246 156.183 8.50115 156.065 8.06069C155.822 7.1553 155.346 6.79767 154.637 6.98782L153.389 7.32221L151.017 7.7216C151.192 7.88457 151.364 8.03531 151.532 8.17382C151.725 8.30577 151.893 8.44428 152.037 8.58934L153.803 9.45375C154.436 9.86096 154.802 10.2481 154.901 10.6151C154.933 10.7375 154.916 10.9652 154.848 11.2981C154.804 11.6246 154.67 12.0539 154.445 12.5862C153.985 13.7062 153.794 14.413 153.872 14.7066C153.938 14.9513 154.307 15.3507 154.98 15.9047C155.691 16.5011 156.076 16.9095 156.135 17.1297C156.279 17.668 155.972 18.0388 155.213 18.2421C154.773 18.3601 154.038 18.3602 153.01 18.2423L153.653 21.3747L153.756 22.0551L153.815 22.2753C153.861 22.4466 153.928 22.5469 154.014 22.5761C154.056 22.5386 154.127 22.5066 154.224 22.4804C154.738 22.3427 155.241 22.4572 155.733 22.8238C156.249 23.1838 156.683 23.6312 157.037 24.166C157.414 24.6943 157.655 25.1542 157.76 25.5457C157.97 26.3288 157.61 26.8449 156.68 27.094C156.142 27.2383 155.536 27.1778 154.861 26.9126C155.207 27.7118 155.94 28.1972 157.061 28.3689C158.054 28.5488 158.925 28.4727 159.675 28.1405Z" fill="url(#paint8_linear_1_2185)"/>
<path d="M176.075 15.6814C175.659 15.7928 175.386 15.6039 175.255 15.1145C175.189 14.8698 175.32 14.6248 175.648 14.3796C175.866 14.2162 176.079 14.0805 176.286 13.9726C176.487 13.8401 176.696 13.6922 176.915 13.5287C177.619 13.0253 178.149 12.3589 178.503 11.5294C178.852 10.6756 179.042 9.7721 179.075 8.81905C179.108 7.866 179.02 6.99795 178.81 6.21491C178.594 5.40739 178.275 4.70607 177.853 4.11095C177.714 5.3546 177.126 6.3385 176.087 7.06266C175.418 7.50406 174.858 8.00816 174.407 8.57496C173.98 9.1352 173.888 9.86802 174.131 10.7734C174.36 11.6299 174.164 12.3644 173.541 12.9771C173.269 13.2337 172.971 13.4445 172.648 13.6097C172.325 13.7749 171.953 13.901 171.53 13.988C171.352 14.0095 171.162 14.0342 170.96 14.0622C170.775 14.0591 170.584 14.0316 170.387 13.9796C170.492 14.3711 170.608 14.7072 170.736 14.9877C170.888 15.2617 171.06 15.4646 171.253 15.5966C171.477 15.7464 171.618 15.9315 171.677 16.1517C171.795 16.5922 171.493 16.883 170.77 17.0242C170.243 17.113 169.802 16.4966 169.448 15.1753C169.462 15.2242 169.439 15.1386 169.38 14.9183C169.321 14.6981 169.204 14.3621 169.031 13.9102L168.932 13.5432C168.834 13.1761 168.789 12.8604 168.797 12.5961L168.852 12.0697L168.656 11.3356C168.785 11.3273 168.901 11.3223 169.006 11.3205C169.11 11.3188 169.19 11.3236 169.246 11.3349C169.33 11.2597 169.406 11.2001 169.473 11.1559C169.564 11.1053 169.659 11.0668 169.757 11.0406C169.855 11.0143 169.968 10.9971 170.097 10.9888C170.219 10.956 170.329 10.9265 170.427 10.9002C171.186 10.697 171.693 10.3382 171.949 9.82383C172.222 9.27846 172.29 8.74884 172.152 8.23497C172.139 8.18603 172.107 8.1159 172.057 8.02457C172.03 7.92669 171.989 7.81985 171.931 7.70406C171.469 7.25095 171.005 7.08669 170.54 7.21127C170.345 7.26372 170.193 7.38303 170.086 7.56919C169.971 7.73088 169.957 8.16742 170.043 8.87881C170.107 9.41236 169.968 9.72503 169.626 9.81682C169.259 9.91517 168.991 9.89509 168.823 9.75659C168.536 9.85974 168.191 9.99152 167.788 10.1519C167.409 10.3058 166.97 10.476 166.469 10.6626C166.055 10.8785 165.646 11.0667 165.243 11.2271C164.865 11.381 164.48 11.5103 164.088 11.6152C163.795 11.6939 163.51 11.7571 163.234 11.8047C162.959 11.8524 162.676 11.8756 162.387 11.8743C161.939 11.8634 161.668 11.6867 161.577 11.3441L161.574 9.57434C161.604 6.94373 162.194 4.93665 163.344 3.55308C164.495 2.16952 166.306 1.14662 168.777 0.484386C169.756 0.222116 170.809 0.136815 171.935 0.228483C173.054 0.295681 174.136 0.517136 175.181 0.892847C176.25 1.262 177.18 1.74718 177.971 2.34839C178.83 3.0099 179.473 4.13594 179.899 5.72649C180.424 7.6841 180.51 9.37869 180.16 10.8103C179.802 12.2174 178.821 13.595 177.215 14.9432C176.7 15.3697 176.32 15.6158 176.075 15.6814ZM163.538 10.1497C164.468 9.90051 165.841 9.49335 167.656 8.92818C167.527 8.54321 167.292 8.10779 166.952 7.6219C166.637 7.12945 166.314 6.75696 165.984 6.50441C165.285 5.85251 164.847 5.05178 164.672 4.10225C163.485 5.15459 162.85 6.70154 162.768 8.7431C162.743 9.43178 162.743 9.82506 162.769 9.92294C162.842 10.1921 163.098 10.2677 163.538 10.1497ZM173.952 16.5651C173.731 16.6241 173.446 16.6351 173.095 16.598C172.737 16.5364 172.532 16.4077 172.48 16.2119C172.388 15.8694 172.597 15.6692 173.106 15.6115C173.406 15.5573 173.636 15.535 173.796 15.5446C173.95 15.5297 174.038 15.519 174.063 15.5124C174.309 15.5513 174.459 15.6686 174.511 15.8644C174.603 16.207 174.417 16.4405 173.952 16.5651ZM175.718 25.6517C175.399 25.7369 175.084 25.7822 174.77 25.7874C173.395 25.8413 172.251 25.6362 171.34 25.1722C170.447 24.6772 169.913 24.0072 169.739 23.1621C169.344 21.1961 169.655 19.8144 170.674 19.0168C171.887 18.0624 172.836 17.4933 173.522 17.3098C174.06 17.1655 174.622 17.1591 175.208 17.2906C175.812 17.3911 176.37 17.5169 176.883 17.668C176.852 17.6501 176.827 17.6044 176.807 17.531C176.593 17.2212 176.571 17.0434 176.743 16.9975C176.889 16.9581 177.082 17.0901 177.321 17.3933C177.584 17.69 177.854 18.0634 178.132 18.5135C178.404 18.939 178.632 19.35 178.817 19.7463C179.026 20.1361 179.15 20.4044 179.19 20.5512C179.38 21.2608 179.309 21.9749 178.977 22.6933C178.669 23.4051 178.21 24.0397 177.599 24.5969C177.005 25.123 176.378 25.4746 175.718 25.6517ZM175.036 22.3724C175.452 22.261 175.904 21.943 176.393 21.4186C176.906 20.8876 177.277 20.1194 177.506 19.1139C177.542 19.0519 177.557 19.0086 177.55 18.9841C177.464 18.9549 177.34 18.8832 177.178 18.7692C176.649 18.3602 176.076 18.1332 175.461 18.0883C174.839 18.0189 174.18 18.1037 173.484 18.3428C172.329 18.7309 171.489 19.2182 170.964 19.8047C170.464 20.3846 170.313 21.2905 170.512 22.5223C170.677 22.4519 170.833 22.3971 170.98 22.3577C171.12 22.2939 171.263 22.2423 171.41 22.203C172.022 22.0391 172.569 22.0237 173.05 22.157C174.031 22.3924 174.693 22.4642 175.036 22.3724Z" fill="url(#paint9_linear_1_2185)"/>
</g>
<defs>
<filter id="filter0_d_1_2185" x="0.851501" y="0.192871" width="179.519" height="71.281" filterUnits="userSpaceOnUse" color-interpolation-filters="sRGB">
<feFlood flood-opacity="0" result="BackgroundImageFix"/>
<feColorMatrix in="SourceAlpha" type="matrix" values="0 0 0 0 0 0 0 0 0 0 0 0 0 0 0 0 0 0 127 0" result="hardAlpha"/>
<feOffset dy="2"/>
<feComposite in2="hardAlpha" operator="out"/>
<feColorMatrix type="matrix" values="0 0 0 0 0 0 0 0 0 0 0 0 0 0 0 0 0 0 0.55 0"/>
<feBlend mode="normal" in2="BackgroundImageFix" result="effect1_dropShadow_1_2185"/>
<feBlend mode="normal" in="SourceGraphic" in2="effect1_dropShadow_1_2185" result="shape"/>
</filter>
<linearGradient id="paint0_linear_1_2185" x1="0.851501" y1="34.8334" x2="180.37" y2="34.8334" gradientUnits="userSpaceOnUse">
<stop stop-color="#FF75C3"/>
<stop offset="0.2" stop-color="#FFA647"/>
<stop offset="0.4" stop-color="#FFE83F"/>
<stop offset="0.6" stop-color="#9FFF5B"/>
<stop offset="0.8" stop-color="#70E2FF"/>
<stop offset="1" stop-color="#CD93FF"/>
</linearGradient>
<linearGradient id="paint1_linear_1_2185" x1="0.851501" y1="34.8334" x2="180.37" y2="34.8334" gradientUnits="userSpaceOnUse">
<stop stop-color="#FF75C3"/>
<stop offset="0.2" stop-color="#FFA647"/>
<stop offset="0.4" stop-color="#FFE83F"/>
<stop offset="0.6" stop-color="#9FFF5B"/>
<stop offset="0.8" stop-color="#70E2FF"/>
<stop offset="1" stop-color="#CD93FF"/>
</linearGradient>
<linearGradient id="paint2_linear_1_2185" x1="0.851501" y1="34.8334" x2="180.37" y2="34.8334" gradientUnits="userSpaceOnUse">
<stop stop-color="#FF75C3"/>
<stop offset="0.2" stop-color="#FFA647"/>
<stop offset="0.4" stop-color="#FFE83F"/>
<stop offset="0.6" stop-color="#9FFF5B"/>
<stop offset="0.8" stop-color="#70E2FF"/>
<stop offset="1" stop-color="#CD93FF"/>
</linearGradient>
<linearGradient id="paint3_linear_1_2185" x1="0.851501" y1="34.8334" x2="180.37" y2="34.8334" gradientUnits="userSpaceOnUse">
<stop stop-color="#FF75C3"/>
<stop offset="0.2" stop-color="#FFA647"/>
<stop offset="0.4" stop-color="#FFE83F"/>
<stop offset="0.6" stop-color="#9FFF5B"/>
<stop offset="0.8" stop-color="#70E2FF"/>
<stop offset="1" stop-color="#CD93FF"/>
</linearGradient>
<linearGradient id="paint4_linear_1_2185" x1="0.851501" y1="34.8334" x2="180.37" y2="34.8334" gradientUnits="userSpaceOnUse">
<stop stop-color="#FF75C3"/>
<stop offset="0.2" stop-color="#FFA647"/>
<stop offset="0.4" stop-color="#FFE83F"/>
<stop offset="0.6" stop-color="#9FFF5B"/>
<stop offset="0.8" stop-color="#70E2FF"/>
<stop offset="1" stop-color="#CD93FF"/>
</linearGradient>
<linearGradient id="paint5_linear_1_2185" x1="0.851501" y1="34.8334" x2="180.37" y2="34.8334" gradientUnits="userSpaceOnUse">
<stop stop-color="#FF75C3"/>
<stop offset="0.2" stop-color="#FFA647"/>
<stop offset="0.4" stop-color="#FFE83F"/>
<stop offset="0.6" stop-color="#9FFF5B"/>
<stop offset="0.8" stop-color="#70E2FF"/>
<stop offset="1" stop-color="#CD93FF"/>
</linearGradient>
<linearGradient id="paint6_linear_1_2185" x1="0.851501" y1="34.8334" x2="180.37" y2="34.8334" gradientUnits="userSpaceOnUse">
<stop stop-color="#FF75C3"/>
<stop offset="0.2" stop-color="#FFA647"/>
<stop offset="0.4" stop-color="#FFE83F"/>
<stop offset="0.6" stop-color="#9FFF5B"/>
<stop offset="0.8" stop-color="#70E2FF"/>
<stop offset="1" stop-color="#CD93FF"/>
</linearGradient>
<linearGradient id="paint7_linear_1_2185" x1="0.851501" y1="34.8334" x2="180.37" y2="34.8334" gradientUnits="userSpaceOnUse">
<stop stop-color="#FF75C3"/>
<stop offset="0.2" stop-color="#FFA647"/>
<stop offset="0.4" stop-color="#FFE83F"/>
<stop offset="0.6" stop-color="#9FFF5B"/>
<stop offset="0.8" stop-color="#70E2FF"/>
<stop offset="1" stop-color="#CD93FF"/>
</linearGradient>
<linearGradient id="paint8_linear_1_2185" x1="0.851501" y1="34.8334" x2="180.37" y2="34.8334" gradientUnits="userSpaceOnUse">
<stop stop-color="#FF75C3"/>
<stop offset="0.2" stop-color="#FFA647"/>
<stop offset="0.4" stop-color="#FFE83F"/>
<stop offset="0.6" stop-color="#9FFF5B"/>
<stop offset="0.8" stop-color="#70E2FF"/>
<stop offset="1" stop-color="#CD93FF"/>
</linearGradient>
<linearGradient id="paint9_linear_1_2185" x1="0.851501" y1="34.8334" x2="180.37" y2="34.8334" gradientUnits="userSpaceOnUse">
<stop stop-color="#FF75C3"/>
<stop offset="0.2" stop-color="#FFA647"/>
<stop offset="0.4" stop-color="#FFE83F"/>
<stop offset="0.6" stop-color="#9FFF5B"/>
<stop offset="0.8" stop-color="#70E2FF"/>
<stop offset="1" stop-color="#CD93FF"/>
</linearGradient>
</defs>
</svg>
