<svg width="35" height="49" viewBox="0 0 35 49" fill="none" xmlns="http://www.w3.org/2000/svg">
<g filter="url(#filter0_d_1_2186)">
<path d="M18.8195 31.1376C18.0748 30.9392 17.8192 30.4019 18.0526 29.5258C18.1693 29.0878 18.5912 28.8248 19.3183 28.737C19.803 28.6785 20.2542 28.658 20.6718 28.6754C21.101 28.649 21.558 28.6065 22.0428 28.548C23.5846 28.3958 25.0007 27.8347 26.2912 26.8649C27.5933 25.8513 28.6954 24.6201 29.5974 23.1715C30.4993 21.7229 31.137 20.2977 31.5105 18.8959C31.8956 17.4503 32.0266 16.0778 31.9036 14.7783C30.5783 16.5833 28.7871 17.584 26.5298 17.7802C25.0989 17.8681 23.7806 18.1503 22.5746 18.6266C21.4125 19.1145 20.6156 20.1689 20.1838 21.7897C19.7754 23.3229 18.8149 24.2868 17.3023 24.6814C16.6512 24.8364 16.0015 24.8979 15.3532 24.8659C14.7049 24.8339 14.0142 24.6969 13.2812 24.4547C12.9862 24.3292 12.6694 24.1979 12.3306 24.0607C12.0473 23.8914 11.7756 23.6783 11.5157 23.4214C11.329 24.1223 11.2094 24.7472 11.157 25.2962C11.1484 25.8569 11.2346 26.3256 11.4158 26.7022C11.6291 27.1344 11.6832 27.5475 11.5782 27.9418C11.3681 28.7303 10.6396 28.9115 9.39254 28.4855C8.49596 28.1528 8.36275 26.8037 8.99291 24.4382C8.96957 24.5258 9.01042 24.3725 9.11544 23.9783C9.22047 23.584 9.34004 22.9591 9.47415 22.1034L9.6492 21.4463C9.82424 20.7893 10.0358 20.2592 10.2839 19.8562L10.84 19.0895L11.1901 17.7753C11.3975 17.8774 11.5829 17.9738 11.7465 18.0643C11.91 18.1547 12.0298 18.2336 12.1057 18.3007C12.3043 18.2598 12.4751 18.2349 12.6182 18.2261C12.8051 18.229 12.9861 18.2537 13.1614 18.3004C13.3366 18.3471 13.5279 18.4215 13.7352 18.5237C13.9543 18.582 14.1514 18.6345 14.3266 18.6812C15.6846 19.043 16.7913 18.939 17.6468 18.3694C18.5577 17.7676 19.1357 17.0067 19.3808 16.0868C19.4041 15.9992 19.4172 15.862 19.4201 15.6751C19.4668 15.4998 19.4974 15.2969 19.5119 15.0662C19.1992 13.9508 18.6267 13.2822 17.7944 13.0605C17.4439 12.9671 17.1023 13.0168 16.7694 13.2096C16.4482 13.3587 16.0367 14.0231 15.5347 15.203C15.1582 16.0879 14.6633 16.4487 14.0501 16.2853C13.393 16.1102 12.9958 15.8402 12.8584 15.4752C12.3211 15.379 11.6684 15.2755 10.9004 15.1647C10.1761 15.0656 9.34239 14.9374 8.39913 14.7799C7.56395 14.7451 6.76235 14.6723 5.99431 14.5615C5.27008 14.4624 4.55752 14.3195 3.85663 14.1328C3.33097 13.9927 2.83304 13.8366 2.36284 13.6645C1.89265 13.4923 1.43413 13.2763 0.987277 13.0165C0.30093 12.5991 0.0394435 12.0838 0.202819 11.4705L1.77902 8.72367C4.17254 4.66986 6.87889 2.08336 9.89807 0.964165C12.9172 -0.155027 16.639 -0.125307 21.0634 1.05332C22.8156 1.52011 24.5241 2.32711 26.1889 3.47431C27.8654 4.57772 29.3462 5.88704 30.6315 7.40229C31.9606 8.9292 32.9699 10.5117 33.6595 12.1497C34.4016 13.9425 34.3935 16.2626 33.6349 19.11C32.7014 22.6144 31.3237 25.3203 29.502 27.2277C27.692 29.0912 24.94 30.3519 21.2462 31.0099C20.0665 31.2117 19.2576 31.2543 18.8195 31.1376ZM4.31148 11.3687C5.97609 11.8122 8.46862 12.4058 11.789 13.1496C11.932 12.437 11.9566 11.5522 11.8628 10.4951C11.8129 9.44972 11.6448 8.58392 11.3584 7.89776C10.8558 6.26258 10.8919 4.6302 11.4667 3.00059C8.68685 3.57365 6.32197 5.40666 4.37208 8.49962C3.71822 9.54521 3.36796 10.1556 3.32128 10.3308C3.19291 10.8127 3.52298 11.1587 4.31148 11.3687ZM14.737 30.613C14.3428 30.5079 13.8901 30.2701 13.3789 29.8993C12.8795 29.4848 12.6764 29.1023 12.7698 28.7518C12.9332 28.1386 13.4354 28.0143 14.2765 28.3791C14.7905 28.563 15.1673 28.7337 15.4067 28.8913C15.6579 29.0052 15.8054 29.0679 15.8492 29.0796C16.1968 29.3598 16.3239 29.6752 16.2305 30.0256C16.0672 30.6389 15.5693 30.8347 14.737 30.613ZM9.36638 46.2825C8.79691 46.1308 8.26685 45.9192 7.77619 45.6478C5.59452 44.5036 4.00415 43.1651 3.00506 41.6323C2.06145 40.0673 1.83183 38.5518 2.31621 37.0858C3.45714 33.6835 5.17373 31.8185 7.46598 31.4909C10.1992 31.093 12.179 31.0575 13.4056 31.3842C14.3693 31.641 15.247 32.1328 16.0385 32.8597C16.8855 33.5545 17.6391 34.2478 18.2993 34.9398C18.2671 34.8843 18.2686 34.7908 18.3036 34.6594C18.2479 33.9878 18.3734 33.6928 18.68 33.7745C18.9429 33.8445 19.124 34.2212 19.2235 34.9045C19.3667 35.5994 19.4531 36.42 19.4825 37.3661C19.5237 38.2685 19.5107 39.1095 19.4438 39.8892C19.4206 40.6805 19.374 41.2076 19.304 41.4705C18.9656 42.7408 18.2183 43.785 17.0621 44.6029C15.9497 45.4325 14.6708 46.0067 13.2254 46.3254C11.8355 46.6119 10.5491 46.5976 9.36638 46.2825ZM11.2353 40.5877C11.98 40.7861 12.9655 40.6968 14.1919 40.3198C15.4621 39.9544 16.7234 39.0941 17.9758 37.7388C18.0868 37.6746 18.1481 37.6205 18.1598 37.5767C18.0517 37.4541 17.9231 37.2322 17.7741 36.911C17.3183 35.8044 16.6333 34.9416 15.7191 34.3228C14.8166 33.6601 13.7185 33.2034 12.4248 32.9526C10.2871 32.5239 8.54963 32.5302 7.2123 32.9714C5.91878 33.4244 4.8766 34.6949 4.08576 36.7831C4.40407 36.8209 4.69464 36.8749 4.95747 36.9449C5.23198 36.9711 5.50065 37.0192 5.76348 37.0893C6.85862 37.381 7.72019 37.8451 8.34819 38.4815C9.65966 39.7223 10.622 40.4243 11.2353 40.5877Z" fill="url(#paint0_linear_1_2186)"/>
</g>
<defs>
<filter id="filter0_d_1_2186" x="0.155701" y="0.146484" width="34.0543" height="48.3835" filterUnits="userSpaceOnUse" color-interpolation-filters="sRGB">
<feFlood flood-opacity="0" result="BackgroundImageFix"/>
<feColorMatrix in="SourceAlpha" type="matrix" values="0 0 0 0 0 0 0 0 0 0 0 0 0 0 0 0 0 0 127 0" result="hardAlpha"/>
<feOffset dy="2"/>
<feComposite in2="hardAlpha" operator="out"/>
<feColorMatrix type="matrix" values="0 0 0 0 0 0 0 0 0 0 0 0 0 0 0 0 0 0 0.55 0"/>
<feBlend mode="normal" in2="BackgroundImageFix" result="effect1_dropShadow_1_2186"/>
<feBlend mode="normal" in="SourceGraphic" in2="effect1_dropShadow_1_2186" result="shape"/>
</filter>
<linearGradient id="paint0_linear_1_2186" x1="0.155701" y1="23.3383" x2="34.21" y2="23.3383" gradientUnits="userSpaceOnUse">
<stop stop-color="#FF75C3"/>
<stop offset="0.2" stop-color="#FFA647"/>
<stop offset="0.4" stop-color="#FFE83F"/>
<stop offset="0.6" stop-color="#9FFF5B"/>
<stop offset="0.8" stop-color="#70E2FF"/>
<stop offset="1" stop-color="#CD93FF"/>
</linearGradient>
</defs>
</svg>
