<svg width="35" height="49" viewBox="0 0 35 49" fill="none" xmlns="http://www.w3.org/2000/svg">
<g filter="url(#filter0_d_1_2187)">
<path d="M26.7206 28.4489C25.9773 28.6523 25.4859 28.3169 25.2465 27.4424C25.1268 27.0051 25.359 26.5655 25.943 26.1236C26.3324 25.829 26.7119 25.5842 27.0815 25.389C27.4391 25.1501 27.8125 24.8833 28.2019 24.5887C29.4574 23.681 30.3986 22.4833 31.0254 20.9956C31.6402 19.4643 31.9726 17.8457 32.0226 16.14C32.0727 14.4342 31.9061 12.8818 31.5231 11.4826C31.1281 10.0397 30.5503 8.78781 29.7899 7.72695C29.5535 9.95374 28.5095 11.7201 26.658 13.026C25.4659 13.8224 24.4688 14.7299 23.6667 15.7485C22.9082 16.7552 22.7505 18.0674 23.1934 19.6852C23.6123 21.2155 23.2677 22.5319 22.1595 23.6344C21.6748 24.096 21.1444 24.4763 20.5682 24.775C19.9919 25.0738 19.3262 25.303 18.5709 25.4628C18.2529 25.5029 17.913 25.5489 17.5512 25.601C17.2212 25.5973 16.8792 25.5499 16.5252 25.4588C16.7168 26.1584 16.9281 26.7586 17.1592 27.2593C17.434 27.7481 17.7445 28.1096 18.0906 28.3439C18.4924 28.6099 18.7472 28.9397 18.855 29.3332C19.0704 30.1202 18.5322 30.6436 17.2402 30.9033C16.2981 31.0672 15.5038 29.9686 14.8574 27.6075C14.8813 27.6949 14.8395 27.5419 14.7317 27.1484C14.624 26.7549 14.4127 26.1547 14.0978 25.3479L13.9182 24.692C13.7387 24.0361 13.6546 23.4716 13.6661 22.9985L13.7606 22.0561L13.4015 20.7443C13.6321 20.7282 13.8408 20.7181 14.0277 20.7139C14.2146 20.7098 14.3577 20.7176 14.4571 20.7373C14.6081 20.602 14.7432 20.4945 14.8624 20.4149C15.0253 20.3233 15.1942 20.2536 15.3691 20.2057C15.544 20.1578 15.7468 20.1258 15.9773 20.1097C16.196 20.0498 16.3927 19.9959 16.5676 19.9481C17.9231 19.577 18.827 18.93 19.2794 18.0071C19.7635 17.0286 19.8799 16.0802 19.6285 15.162C19.6045 15.0745 19.5468 14.9493 19.4552 14.7864C19.4073 14.6115 19.3316 14.4207 19.228 14.2141C18.3962 13.4078 17.565 13.1183 16.7342 13.3457C16.3844 13.4415 16.1142 13.6565 15.9237 13.9906C15.7212 14.2811 15.7001 15.0624 15.8604 16.3346C15.9806 17.2887 15.7346 17.8495 15.1225 18.0171C14.4666 18.1967 13.9875 18.1633 13.685 17.9171C13.1723 18.1045 12.5563 18.3436 11.8369 18.6346C11.1613 18.9136 10.3763 19.2225 9.48202 19.5613C8.74286 19.9517 8.0136 20.2923 7.29422 20.5833C6.61857 20.8622 5.93095 21.0975 5.23136 21.289C4.70667 21.4326 4.19785 21.5484 3.70492 21.6364C3.21198 21.7243 2.70707 21.7686 2.19019 21.7691C1.38702 21.7539 0.901647 21.4403 0.734062 20.8282L0.713104 17.6613C0.740354 12.9537 1.77659 9.3564 3.82183 6.86942C5.86706 4.38244 9.09775 2.53445 13.5139 1.32545C15.2629 0.846637 17.1454 0.683786 19.1614 0.836897C21.1654 0.946284 23.104 1.33207 24.9774 1.99425C26.8944 2.64445 28.5632 3.50364 29.9837 4.57181C31.5275 5.74721 32.6884 7.75595 33.4665 10.598C34.4241 14.096 34.596 17.1275 33.9823 19.6926C33.3565 22.214 31.6134 24.6888 28.753 27.1169C27.8353 27.8852 27.1579 28.3291 26.7206 28.4489ZM4.23284 18.6718C5.89437 18.2169 8.34684 17.475 11.5903 16.446C11.355 15.7584 10.9308 14.9815 10.3177 14.1154C9.74825 13.2372 9.16712 12.5738 8.57426 12.1251C7.31672 10.9653 6.5261 9.53669 6.2024 7.83925C4.089 9.73387 2.96847 12.5082 2.8408 16.1623C2.80223 17.3949 2.80689 18.0986 2.85477 18.2735C2.98645 18.7545 3.4458 18.8872 4.23284 18.6718ZM22.9291 30.0509C22.5355 30.1586 22.0246 30.181 21.3964 30.118C20.7561 30.0112 20.3881 29.783 20.2924 29.4332C20.1248 28.821 20.4962 28.4608 21.4066 28.3526C21.9433 28.2527 22.3547 28.2105 22.641 28.2262C22.9153 28.1981 23.0744 28.178 23.1181 28.1661C23.5595 28.2332 23.8281 28.4417 23.9238 28.7915C24.0914 29.4036 23.7598 29.8234 22.9291 30.0509ZM26.1773 46.2937C25.6089 46.4493 25.0443 46.5333 24.4837 46.5458C22.0227 46.6555 19.9747 46.2997 18.3398 45.4782C16.7366 44.6011 15.7753 43.4072 15.4557 41.8966C14.7287 38.3826 15.273 35.907 17.0886 34.4699C19.2499 32.7502 20.9427 31.7227 22.167 31.3875C23.1289 31.1242 24.1348 31.1073 25.1847 31.3369C26.2663 31.5108 27.2665 31.7305 28.1852 31.996C28.1295 31.9643 28.0837 31.8828 28.0478 31.7516C27.6616 31.1993 27.6215 30.8813 27.9276 30.7975C28.19 30.7257 28.5361 30.9599 28.966 31.5002C29.4397 32.0286 29.9274 32.6941 30.4291 33.4968C30.9189 34.2557 31.3312 34.9889 31.6658 35.6963C32.0442 36.3917 32.2693 36.8706 32.3411 37.133C32.6883 38.401 32.5683 39.6794 31.9811 40.9682C31.4376 42.245 30.6216 43.3849 29.5332 44.3879C28.4765 45.3352 27.3578 45.9705 26.1773 46.2937ZM24.9251 40.4323C25.6684 40.2288 26.475 39.6554 27.3448 38.7123C28.2584 37.7572 28.9151 36.3788 29.3149 34.5773C29.3784 34.4659 29.4042 34.3884 29.3922 34.3447C29.2371 34.2931 29.0143 34.1661 28.7239 33.9636C27.7729 33.2369 26.7467 32.8363 25.6453 32.7619C24.5319 32.6437 23.3532 32.8019 22.1091 33.2364C20.0463 33.9422 18.5482 34.8223 17.6148 35.8769C16.7252 36.9195 16.4644 38.5419 16.8323 40.7443C17.1264 40.6167 17.4046 40.5171 17.667 40.4453C17.9173 40.3297 18.1737 40.236 18.436 40.1642C19.5291 39.8649 20.5072 39.8322 21.3702 40.0659C23.128 40.4777 24.313 40.5998 24.9251 40.4323Z" fill="url(#paint0_linear_1_2187)"/>
</g>
<defs>
<filter id="filter0_d_1_2187" x="0.713104" y="0.78125" width="33.6288" height="47.7839" filterUnits="userSpaceOnUse" color-interpolation-filters="sRGB">
<feFlood flood-opacity="0" result="BackgroundImageFix"/>
<feColorMatrix in="SourceAlpha" type="matrix" values="0 0 0 0 0 0 0 0 0 0 0 0 0 0 0 0 0 0 127 0" result="hardAlpha"/>
<feOffset dy="2"/>
<feComposite in2="hardAlpha" operator="out"/>
<feColorMatrix type="matrix" values="0 0 0 0 0 0 0 0 0 0 0 0 0 0 0 0 0 0 0.55 0"/>
<feBlend mode="normal" in2="BackgroundImageFix" result="effect1_dropShadow_1_2187"/>
<feBlend mode="normal" in="SourceGraphic" in2="effect1_dropShadow_1_2187" result="shape"/>
</filter>
<linearGradient id="paint0_linear_1_2187" x1="0.713104" y1="23.6732" x2="34.3419" y2="23.6732" gradientUnits="userSpaceOnUse">
<stop stop-color="#FF75C3"/>
<stop offset="0.2" stop-color="#FFA647"/>
<stop offset="0.4" stop-color="#FFE83F"/>
<stop offset="0.6" stop-color="#9FFF5B"/>
<stop offset="0.8" stop-color="#70E2FF"/>
<stop offset="1" stop-color="#CD93FF"/>
</linearGradient>
</defs>
</svg>
